{
	"patcher" : 	{
		"fileversion" : 1,
		"appversion" : 		{
			"major" : 8,
			"minor" : 6,
			"revision" : 5,
			"architecture" : "x64",
			"modernui" : 1
		}
,
		"classnamespace" : "box",
		"rect" : [ 34.0, 87.0, 1230.0, 915.0 ],
		"bglocked" : 0,
		"openinpresentation" : 0,
		"default_fontsize" : 12.0,
		"default_fontface" : 0,
		"default_fontname" : "Arial",
		"gridonopen" : 1,
		"gridsize" : [ 15.0, 15.0 ],
		"gridsnaponopen" : 1,
		"objectsnaponopen" : 1,
		"statusbarvisible" : 2,
		"toolbarvisible" : 1,
		"lefttoolbarpinned" : 0,
		"toptoolbarpinned" : 0,
		"righttoolbarpinned" : 0,
		"bottomtoolbarpinned" : 0,
		"toolbars_unpinned_last_save" : 0,
		"tallnewobj" : 0,
		"boxanimatetime" : 200,
		"enablehscroll" : 1,
		"enablevscroll" : 1,
		"devicewidth" : 0.0,
		"description" : "",
		"digest" : "",
		"tags" : "",
		"style" : "",
		"subpatcher_template" : "",
		"assistshowspatchername" : 0,
		"boxes" : [ 			{
				"box" : 				{
					"id" : "obj-54",
					"maxclass" : "newobj",
					"numinlets" : 2,
					"numoutlets" : 2,
					"outlettype" : [ "bang", "" ],
					"patching_rect" : [ 762.0, 480.5, 34.0, 22.0 ],
					"text" : "sel 1"
				}

			}
, 			{
				"box" : 				{
					"id" : "obj-55",
					"maxclass" : "message",
					"numinlets" : 2,
					"numoutlets" : 1,
					"outlettype" : [ "" ],
					"patching_rect" : [ 762.0, 516.5, 29.5, 22.0 ],
					"text" : "60"
				}

			}
, 			{
				"box" : 				{
					"id" : "obj-52",
					"maxclass" : "newobj",
					"numinlets" : 2,
					"numoutlets" : 2,
					"outlettype" : [ "bang", "" ],
					"patching_rect" : [ 724.0, 480.5, 34.0, 22.0 ],
					"text" : "sel 1"
				}

			}
, 			{
				"box" : 				{
					"id" : "obj-53",
					"maxclass" : "message",
					"numinlets" : 2,
					"numoutlets" : 1,
					"outlettype" : [ "" ],
					"patching_rect" : [ 724.0, 516.5, 29.5, 22.0 ],
					"text" : "60"
				}

			}
, 			{
				"box" : 				{
					"id" : "obj-49",
					"maxclass" : "newobj",
					"numinlets" : 2,
					"numoutlets" : 2,
					"outlettype" : [ "bang", "" ],
					"patching_rect" : [ 686.0, 480.5, 34.0, 22.0 ],
					"text" : "sel 1"
				}

			}
, 			{
				"box" : 				{
					"id" : "obj-51",
					"maxclass" : "message",
					"numinlets" : 2,
					"numoutlets" : 1,
					"outlettype" : [ "" ],
					"patching_rect" : [ 686.0, 516.5, 29.5, 22.0 ],
					"text" : "69"
				}

			}
, 			{
				"box" : 				{
					"id" : "obj-44",
					"maxclass" : "newobj",
					"numinlets" : 2,
					"numoutlets" : 2,
					"outlettype" : [ "bang", "" ],
					"patching_rect" : [ 650.0, 480.5, 34.0, 22.0 ],
					"text" : "sel 1"
				}

			}
, 			{
				"box" : 				{
					"id" : "obj-47",
					"maxclass" : "message",
					"numinlets" : 2,
					"numoutlets" : 1,
					"outlettype" : [ "" ],
					"patching_rect" : [ 650.0, 516.5, 29.5, 22.0 ],
					"text" : "67"
				}

			}
, 			{
				"box" : 				{
					"id" : "obj-38",
					"maxclass" : "newobj",
					"numinlets" : 2,
					"numoutlets" : 2,
					"outlettype" : [ "bang", "" ],
					"patching_rect" : [ 613.0, 480.5, 34.0, 22.0 ],
					"text" : "sel 1"
				}

			}
, 			{
				"box" : 				{
					"id" : "obj-43",
					"maxclass" : "message",
					"numinlets" : 2,
					"numoutlets" : 1,
					"outlettype" : [ "" ],
					"patching_rect" : [ 613.0, 516.5, 29.5, 22.0 ],
					"text" : "65"
				}

			}
, 			{
				"box" : 				{
					"id" : "obj-31",
					"maxclass" : "newobj",
					"numinlets" : 2,
					"numoutlets" : 2,
					"outlettype" : [ "bang", "" ],
					"patching_rect" : [ 575.0, 480.5, 34.0, 22.0 ],
					"text" : "sel 1"
				}

			}
, 			{
				"box" : 				{
					"id" : "obj-28",
					"maxclass" : "message",
					"numinlets" : 2,
					"numoutlets" : 1,
					"outlettype" : [ "" ],
					"patching_rect" : [ 530.0, 651.0, 50.0, 22.0 ],
					"text" : "60"
				}

			}
, 			{
				"box" : 				{
					"id" : "obj-24",
					"maxclass" : "message",
					"numinlets" : 2,
					"numoutlets" : 1,
					"outlettype" : [ "" ],
					"patching_rect" : [ 575.0, 516.5, 29.5, 22.0 ],
					"text" : "60"
				}

			}
, 			{
				"box" : 				{
					"id" : "obj-19",
					"maxclass" : "newobj",
					"numinlets" : 1,
					"numoutlets" : 6,
					"outlettype" : [ "int", "int", "int", "int", "int", "int" ],
					"patching_rect" : [ 613.0, 445.5, 107.0, 22.0 ],
					"text" : "unpack 0 0 0 0 0 0"
				}

			}
, 			{
				"box" : 				{
					"id" : "obj-18",
					"maxclass" : "message",
					"numinlets" : 2,
					"numoutlets" : 1,
					"outlettype" : [ "" ],
					"patching_rect" : [ 606.0, 337.585585415363312, 55.0, 22.0 ],
					"text" : "getrow 0"
				}

			}
, 			{
				"box" : 				{
					"id" : "obj-6",
					"maxclass" : "newobj",
					"numinlets" : 1,
					"numoutlets" : 1,
					"outlettype" : [ "" ],
					"patching_rect" : [ 686.0, 221.585585415363312, 71.0, 22.0 ],
					"text" : "fromsymbol"
				}

			}
, 			{
				"box" : 				{
					"id" : "obj-131",
					"linecount" : 3,
					"maxclass" : "message",
					"numinlets" : 2,
					"numoutlets" : 1,
					"outlettype" : [ "" ],
					"patching_rect" : [ 738.0, 285.585585415363312, 65.0, 49.0 ],
					"text" : "0 0 0 1 0 0 2 0 0 3 0 0 4 0 0 5 0 0"
				}

			}
, 			{
				"box" : 				{
					"id" : "obj-45",
					"maxclass" : "newobj",
					"numinlets" : 2,
					"numoutlets" : 2,
					"outlettype" : [ "", "" ],
					"patching_rect" : [ 686.0, 170.585585415363312, 159.0, 22.0 ],
					"text" : "route /active_buttons_matrix"
				}

			}
, 			{
				"box" : 				{
					"id" : "obj-42",
					"maxclass" : "message",
					"numinlets" : 2,
					"numoutlets" : 1,
					"outlettype" : [ "" ],
					"patching_rect" : [ 930.0, 520.0, 29.5, 22.0 ],
					"text" : "105"
				}

			}
, 			{
				"box" : 				{
					"id" : "obj-36",
					"maxclass" : "newobj",
					"numinlets" : 1,
					"numoutlets" : 1,
					"outlettype" : [ "bang" ],
					"patching_rect" : [ 930.0, 492.0, 58.0, 22.0 ],
					"text" : "loadbang"
				}

			}
, 			{
				"box" : 				{
					"id" : "obj-33",
					"linecount" : 2,
					"maxclass" : "comment",
					"numinlets" : 1,
					"numoutlets" : 0,
					"patching_rect" : [ 988.0, 544.0, 150.0, 33.0 ],
					"text" : "set velocity (how high the sound plays)"
				}

			}
, 			{
				"box" : 				{
					"id" : "obj-16",
					"maxclass" : "number",
					"numinlets" : 1,
					"numoutlets" : 2,
					"outlettype" : [ "", "bang" ],
					"parameter_enable" : 0,
					"patching_rect" : [ 930.0, 555.0, 50.0, 22.0 ]
				}

			}
, 			{
				"box" : 				{
					"id" : "obj-34",
					"linecount" : 5,
					"maxclass" : "comment",
					"numinlets" : 1,
					"numoutlets" : 0,
					"patching_rect" : [ 498.0, 987.0, 153.0, 74.0 ],
					"text" : "1. to load the vst file, click on 'plug' and select the vst file located in /Library/Audio/Plug-Ins/VST"
				}

			}
, 			{
				"box" : 				{
					"id" : "obj-21",
					"linecount" : 5,
					"maxclass" : "comment",
					"numinlets" : 1,
					"numoutlets" : 0,
					"patching_rect" : [ 826.126125633716583, 285.585585415363312, 280.0, 74.0 ],
					"text" : "setting the set of the matrix (it is a row with 6 columns representing our table) (the first element is the number of the column, the second is the number of the row, and the third is 1 because we want to 'activate' the cell -> see help also)"
				}

			}
, 			{
				"box" : 				{
					"id" : "obj-50",
					"linecount" : 7,
					"maxclass" : "comment",
					"numinlets" : 1,
					"numoutlets" : 0,
					"patching_rect" : [ 1082.0, 381.0, 153.0, 100.0 ],
					"text" : "every time a cell is active, it outputs the number one(1) and then a number is generated (for the note to be played) (so think of it as a for loop, iterating through a list)"
				}

			}
, 			{
				"box" : 				{
					"id" : "obj-48",
					"linecount" : 2,
					"maxclass" : "message",
					"numinlets" : 2,
					"numoutlets" : 1,
					"outlettype" : [ "" ],
					"patching_rect" : [ 1007.0, 439.0, 50.0, 35.0 ],
					"text" : "0. 0. 0. 0. 0. 0."
				}

			}
, 			{
				"box" : 				{
					"columns" : 6,
					"id" : "obj-41",
					"maxclass" : "matrixctrl",
					"numinlets" : 1,
					"numoutlets" : 2,
					"outlettype" : [ "list", "list" ],
					"parameter_enable" : 0,
					"patching_rect" : [ 687.0, 377.0, 251.0, 40.0 ],
					"rows" : 1
				}

			}
, 			{
				"box" : 				{
					"id" : "obj-40",
					"maxclass" : "newobj",
					"numinlets" : 4,
					"numoutlets" : 1,
					"outlettype" : [ "int" ],
					"patching_rect" : [ 606.0, 305.0, 65.0, 22.0 ],
					"text" : "tempo 100"
				}

			}
, 			{
				"box" : 				{
					"id" : "obj-39",
					"linecount" : 3,
					"maxclass" : "comment",
					"numinlets" : 1,
					"numoutlets" : 0,
					"patching_rect" : [ 774.0, 983.0, 153.0, 47.0 ],
					"text" : "2. to play with the reverb just press on open -> preset -> reverb"
				}

			}
, 			{
				"box" : 				{
					"id" : "obj-37",
					"linecount" : 4,
					"maxclass" : "comment",
					"numinlets" : 1,
					"numoutlets" : 0,
					"patching_rect" : [ 655.0, 902.0, 154.0, 60.0 ],
					"text" : "using valhalla supermassive (open source software) to create reverb"
				}

			}
, 			{
				"box" : 				{
					"id" : "obj-35",
					"maxclass" : "message",
					"numinlets" : 2,
					"numoutlets" : 1,
					"outlettype" : [ "" ],
					"patching_rect" : [ 711.0, 983.0, 35.0, 22.0 ],
					"text" : "open"
				}

			}
, 			{
				"box" : 				{
					"id" : "obj-32",
					"maxclass" : "message",
					"numinlets" : 2,
					"numoutlets" : 1,
					"outlettype" : [ "" ],
					"patching_rect" : [ 666.0, 983.0, 31.0, 22.0 ],
					"text" : "plug"
				}

			}
, 			{
				"box" : 				{
					"autosave" : 1,
					"bgmode" : 0,
					"border" : 0,
					"clickthrough" : 0,
					"id" : "obj-30",
					"maxclass" : "newobj",
					"numinlets" : 2,
					"numoutlets" : 8,
					"offset" : [ 0.0, 0.0 ],
					"outlettype" : [ "signal", "signal", "", "list", "int", "", "", "" ],
					"patching_rect" : [ 666.0, 1029.0, 92.5, 22.0 ],
					"save" : [ "#N", "vst~", "loaduniqueid", 0, ";" ],
					"saved_attribute_attributes" : 					{
						"valueof" : 						{
							"parameter_invisible" : 1,
							"parameter_longname" : "vst~",
							"parameter_modmode" : 0,
							"parameter_shortname" : "vst~",
							"parameter_type" : 3
						}

					}
,
					"saved_object_attributes" : 					{
						"parameter_enable" : 1,
						"parameter_mappable" : 0
					}
,
					"snapshot" : 					{
						"filetype" : "C74Snapshot",
						"version" : 2,
						"minorversion" : 0,
						"name" : "snapshotlist",
						"origin" : "vst~",
						"type" : "list",
						"subtype" : "Undefined",
						"embed" : 1,
						"snapshot" : 						{
							"pluginname" : "ValhallaSupermassive.vst",
							"plugindisplayname" : "ValhallaSupermassive",
							"pluginsavedname" : "/Library/Audio/Plug-Ins/VST/ValhallaSupermassive.vst",
							"pluginsaveduniqueid" : 0,
							"version" : 1,
							"isbank" : 0,
							"isbase64" : 1,
							"blob" : "599.CMlaKA....fQPMDZ....ALWSgMG.D.......A........................................HvFVMjLgHg....O+fWarAhckI2bo8la8HRLt.iHfTlai8FYo41Y8HRUTYTK3HxO9.BOVEFanEFarE1T0AWYx0VXyMWZ1UFHvwVcmklaVUlbyk1at0iHz3BLt.iHf.mbkMWYz4TXsUVOhfCLyARSuQFHR81asIBHMkFd8HBLtTiHfPTYrEVdSkmai0iHv3hL0HBHDUFagkmSuQWY8HBLtHCN0bSLzHSN3PCN1bCL4XiHfPTYrEVde0zb8HBLtLyLyLyLyLCMyHiM2PCMvfiHfPTYrEVdWElbv0iHv3hMv.CLv.CLxLCNzDCN0bSNh.xPrUVXx0iHw3BLh.hQkUFYhE1Xq0iHv3hM3jCLv.CLw.CM4.CMwbSMh.BQk41boQWd8HRLt.iHfbUZjQGZ8HRLt.iHfvza2MTcz0iHv3BLxPCLv.CLv.iLvfiMwXiL1HBHHk1YnMTcz0iHv3hL0XCLv.CLwHSL0jyLzbSMh.RSuQlTgQWY8HBLtHSL3TCN1jyL1TSNy.SM0biHfzzajQTYvQGZ8HBLtfSMwjSN4jSN3.SNxXSMwPiHfzzajUVOh.iK0HBHRU1bkImckQVL8HBLt.iHfHUYyUlb1UFYxziHv3BLh.hTkMWYxYWYjMSOh.iKvHBHRU1bkImckQFM8HBLt.iHfzVZ3wzaisVOh.iHfTWZWkFYzgVOhfiLvHBH0kFRkk1YnQWOhPyL0HxK9.."
						}
,
						"snapshotlist" : 						{
							"current_snapshot" : 0,
							"entries" : [ 								{
									"filetype" : "C74Snapshot",
									"version" : 2,
									"minorversion" : 0,
									"name" : "ValhallaSupermassive",
									"origin" : "ValhallaSupermassive.vst",
									"type" : "VST",
									"subtype" : "AudioEffect",
									"embed" : 0,
									"snapshot" : 									{
										"pluginname" : "ValhallaSupermassive.vst",
										"plugindisplayname" : "ValhallaSupermassive",
										"pluginsavedname" : "/Library/Audio/Plug-Ins/VST/ValhallaSupermassive.vst",
										"pluginsaveduniqueid" : 0,
										"version" : 1,
										"isbank" : 0,
										"isbase64" : 1,
										"blob" : "599.CMlaKA....fQPMDZ....ALWSgMG.D.......A........................................HvFVMjLgHg....O+fWarAhckI2bo8la8HRLt.iHfTlai8FYo41Y8HRUTYTK3HxO9.BOVEFanEFarE1T0AWYx0VXyMWZ1UFHvwVcmklaVUlbyk1at0iHz3BLt.iHf.mbkMWYz4TXsUVOhfCLyARSuQFHR81asIBHMkFd8HBLtTiHfPTYrEVdSkmai0iHv3hL0HBHDUFagkmSuQWY8HBLtHCN0bSLzHSN3PCN1bCL4XiHfPTYrEVde0zb8HBLtLyLyLyLyLCMyHiM2PCMvfiHfPTYrEVdWElbv0iHv3hMv.CLv.CLxLCNzDCN0bSNh.xPrUVXx0iHw3BLh.hQkUFYhE1Xq0iHv3hM3jCLv.CLw.CM4.CMwbSMh.BQk41boQWd8HRLt.iHfbUZjQGZ8HRLt.iHfvza2MTcz0iHv3BLxPCLv.CLv.iLvfiMwXiL1HBHHk1YnMTcz0iHv3hL0XCLv.CLwHSL0jyLzbSMh.RSuQlTgQWY8HBLtHSL3TCN1jyL1TSNy.SM0biHfzzajQTYvQGZ8HBLtfSMwjSN4jSN3.SNxXSMwPiHfzzajUVOh.iK0HBHRU1bkImckQVL8HBLt.iHfHUYyUlb1UFYxziHv3BLh.hTkMWYxYWYjMSOh.iKvHBHRU1bkImckQFM8HBLt.iHfzVZ3wzaisVOh.iHfTWZWkFYzgVOhfiLvHBH0kFRkk1YnQWOhPyL0HxK9.."
									}
,
									"fileref" : 									{
										"name" : "ValhallaSupermassive",
										"filename" : "ValhallaSupermassive.maxsnap",
										"filepath" : "~/Documents/Max 8/Snapshots",
										"filepos" : -1,
										"snapshotfileid" : "3c62abb0b65ed26f207f9d95c7fdd6c5"
									}

								}
 ]
						}

					}
,
					"text" : "vst~",
					"varname" : "vst~",
					"viewvisibility" : 0
				}

			}
, 			{
				"box" : 				{
					"id" : "obj-23",
					"linecount" : 2,
					"maxclass" : "comment",
					"numinlets" : 1,
					"numoutlets" : 0,
					"patching_rect" : [ 901.0, 884.0, 150.0, 33.0 ],
					"text" : "decay makes the sound longer"
				}

			}
, 			{
				"box" : 				{
					"id" : "obj-11",
					"maxclass" : "newobj",
					"numinlets" : 2,
					"numoutlets" : 1,
					"outlettype" : [ "int" ],
					"patcher" : 					{
						"fileversion" : 1,
						"appversion" : 						{
							"major" : 8,
							"minor" : 6,
							"revision" : 5,
							"architecture" : "x64",
							"modernui" : 1
						}
,
						"classnamespace" : "box",
						"rect" : [ 59.0, 103.0, 640.0, 480.0 ],
						"bglocked" : 0,
						"openinpresentation" : 0,
						"default_fontsize" : 12.0,
						"default_fontface" : 0,
						"default_fontname" : "Arial",
						"gridonopen" : 1,
						"gridsize" : [ 15.0, 15.0 ],
						"gridsnaponopen" : 1,
						"objectsnaponopen" : 1,
						"statusbarvisible" : 2,
						"toolbarvisible" : 1,
						"lefttoolbarpinned" : 0,
						"toptoolbarpinned" : 0,
						"righttoolbarpinned" : 0,
						"bottomtoolbarpinned" : 0,
						"toolbars_unpinned_last_save" : 0,
						"tallnewobj" : 0,
						"boxanimatetime" : 200,
						"enablehscroll" : 1,
						"enablevscroll" : 1,
						"devicewidth" : 0.0,
						"description" : "",
						"digest" : "",
						"tags" : "",
						"style" : "",
						"subpatcher_template" : "",
						"assistshowspatchername" : 0,
						"boxes" : [ 							{
								"box" : 								{
									"bubble" : 1,
									"id" : "obj-11",
									"linecount" : 3,
									"maxclass" : "comment",
									"numinlets" : 1,
									"numoutlets" : 0,
									"patching_rect" : [ 180.0, 165.0, 190.0, 51.0 ],
									"text" : "convert the  pitch and velocity integers into properly formatted raw midi messages"
								}

							}
, 							{
								"box" : 								{
									"id" : "obj-3",
									"maxclass" : "comment",
									"numinlets" : 1,
									"numoutlets" : 0,
									"patching_rect" : [ 50.0, 306.0, 167.0, 20.0 ],
									"text" : "Who wants a MIDI massage?"
								}

							}
, 							{
								"box" : 								{
									"comment" : "",
									"id" : "obj-1",
									"index" : 1,
									"maxclass" : "outlet",
									"numinlets" : 1,
									"numoutlets" : 0,
									"patching_rect" : [ 50.0, 244.0, 30.0, 30.0 ]
								}

							}
, 							{
								"box" : 								{
									"fontname" : "Arial",
									"fontsize" : 13.0,
									"id" : "obj-4",
									"maxclass" : "newobj",
									"numinlets" : 7,
									"numoutlets" : 2,
									"outlettype" : [ "int", "" ],
									"patching_rect" : [ 50.0, 179.0, 108.0, 23.0 ],
									"text" : "midiformat"
								}

							}
, 							{
								"box" : 								{
									"fontname" : "Arial",
									"fontsize" : 13.0,
									"id" : "obj-7",
									"maxclass" : "newobj",
									"numinlets" : 2,
									"numoutlets" : 1,
									"outlettype" : [ "" ],
									"patching_rect" : [ 50.0, 141.0, 118.0, 23.0 ],
									"text" : "join"
								}

							}
, 							{
								"box" : 								{
									"fontface" : 0,
									"fontname" : "Arial",
									"fontsize" : 13.0,
									"id" : "obj-8",
									"maxclass" : "newobj",
									"numinlets" : 3,
									"numoutlets" : 2,
									"outlettype" : [ "float", "float" ],
									"patching_rect" : [ 50.0, 100.0, 118.0, 23.0 ],
									"text" : "makenote 60 1000"
								}

							}
, 							{
								"box" : 								{
									"comment" : "",
									"id" : "obj-9",
									"index" : 1,
									"maxclass" : "inlet",
									"numinlets" : 0,
									"numoutlets" : 1,
									"outlettype" : [ "int" ],
									"patching_rect" : [ 50.0, 40.0, 30.0, 30.0 ]
								}

							}
, 							{
								"box" : 								{
									"comment" : "",
									"id" : "obj-10",
									"index" : 2,
									"maxclass" : "inlet",
									"numinlets" : 0,
									"numoutlets" : 1,
									"outlettype" : [ "int" ],
									"patching_rect" : [ 99.5, 40.0, 30.0, 30.0 ]
								}

							}
 ],
						"lines" : [ 							{
								"patchline" : 								{
									"destination" : [ "obj-8", 1 ],
									"source" : [ "obj-10", 0 ]
								}

							}
, 							{
								"patchline" : 								{
									"destination" : [ "obj-1", 0 ],
									"source" : [ "obj-4", 0 ]
								}

							}
, 							{
								"patchline" : 								{
									"destination" : [ "obj-4", 0 ],
									"midpoints" : [ 59.5, 174.0, 59.5, 174.0 ],
									"source" : [ "obj-7", 0 ]
								}

							}
, 							{
								"patchline" : 								{
									"destination" : [ "obj-7", 1 ],
									"source" : [ "obj-8", 1 ]
								}

							}
, 							{
								"patchline" : 								{
									"destination" : [ "obj-7", 0 ],
									"midpoints" : [ 59.5, 125.0, 59.5, 125.0 ],
									"source" : [ "obj-8", 0 ]
								}

							}
, 							{
								"patchline" : 								{
									"destination" : [ "obj-8", 0 ],
									"source" : [ "obj-9", 0 ]
								}

							}
 ]
					}
,
					"patching_rect" : [ 613.0, 651.0, 98.0, 22.0 ],
					"saved_object_attributes" : 					{
						"description" : "",
						"digest" : "",
						"globalpatchername" : "",
						"tags" : ""
					}
,
					"text" : "p midimassage"
				}

			}
, 			{
				"box" : 				{
					"id" : "obj-1",
					"maxclass" : "kslider",
					"numinlets" : 2,
					"numoutlets" : 2,
					"outlettype" : [ "int", "int" ],
					"parameter_enable" : 0,
					"patching_rect" : [ 613.0, 586.0, 336.0, 53.0 ]
				}

			}
, 			{
				"box" : 				{
					"autosave" : 1,
					"bgmode" : 1,
					"border" : 0,
					"clickthrough" : 0,
					"enablehscroll" : 0,
					"enablevscroll" : 0,
					"id" : "obj-7",
					"lockeddragscroll" : 0,
					"lockedsize" : 0,
					"maxclass" : "newobj",
					"numinlets" : 3,
					"numoutlets" : 4,
					"offset" : [ 0.0, 0.0 ],
					"outlettype" : [ "signal", "signal", "", "" ],
					"patching_rect" : [ 613.0, 693.0, 661.0, 196.0 ],
					"saved_attribute_attributes" : 					{
						"valueof" : 						{
							"parameter_invisible" : 1,
							"parameter_longname" : "amxd~",
							"parameter_modmode" : 0,
							"parameter_shortname" : "amxd~",
							"parameter_type" : 3
						}

					}
,
					"saved_object_attributes" : 					{
						"parameter_enable" : 1,
						"patchername" : "P_4L II.amxd",
						"patchername_fallback" : "~/Downloads/P_4L II v.1.0/P_4L II.amxd"
					}
,
					"snapshot" : 					{
						"filetype" : "C74Snapshot",
						"version" : 2,
						"minorversion" : 0,
						"name" : "snapshotlist",
						"origin" : "max~",
						"type" : "list",
						"subtype" : "Undefined",
						"embed" : 1,
						"snapshot" : 						{
							"name" : "P_4L II.amxd",
							"origname" : "~/Downloads/P_4L II v.1.0/P_4L II.amxd",
							"valuedictionary" : 							{
								"parameter_values" : 								{
									"ADSR Attack" : 0.0,
									"ADSR Decay" : 0.850393700787402,
									"ADSR Release" : 0.5,
									"ADSR Response" : 1.0,
									"ADSR Sustain" : 0.0,
									"Clock Chance" : 100.0,
									"Clock Free Rate" : 0.2,
									"Clock Mode" : 1.0,
									"Clock Sync Rate" : 23.0,
									"Detune" : 0.0,
									"Env Trigger Source" : 0.0,
									"FM Mod Amount" : 0.0,
									"FM Mod Source" : 0.0,
									"Filter Bypass" : 1.0,
									"Filter Drive" : 0.0,
									"Filter Mod Source" : 0.0,
									"Filter Resonance" : 0.0,
									"Filter Type" : 0.0,
									"Filter per voice variation" : 0.0,
									"Harm per voice variation" : 0.0,
									"Internal Env Bypass" : 0.0,
									"LFO 2 Curve" : 77.0,
									"LFO 2 Free Rate" : 6.501804585499966,
									"LFO 2 Mode" : 1.0,
									"LFO 2 Phase" : 0.0,
									"LFO 2 Skew" : 44.0,
									"LFO 2 Squareness" : 50.0,
									"LFO 2 Symmetry" : 0.0,
									"LFO 2 Sync" : 0.0,
									"LFO 2 Sync Rate" : 23.0,
									"LFO 2 Tilt" : 50.0,
									"LFO 2 Warp" : 0.0,
									"LFO 2 Width" : 50.0,
									"LFO Curve" : 50.0,
									"LFO Free Rate" : 6.501804585499966,
									"LFO Mode" : 0.0,
									"LFO Phase" : 0.0,
									"LFO Skew" : 50.0,
									"LFO Squareness" : 50.0,
									"LFO Symmetry" : 0.0,
									"LFO Sync" : 1.0,
									"LFO Sync Rate" : 15.0,
									"LFO Tilt" : 50.0,
									"LFO Warp" : 50.0,
									"LFO Width" : 50.0,
									"LPG Color" : 1.0,
									"LPG Decay" : 0.0,
									"Level Mod Source" : 0.0,
									"Master Volume" : -3.485564304461903,
									"Morph Mod Source" : 0.0,
									"Morph per voice variation" : 0.0,
									"Octave Shift" : 0.0,
									"Oscillator Mix" : 0.503937007874016,
									"RND Instability" : 13.0,
									"RND Mode" : 0.0,
									"RND Rate" : 4.349799086702484,
									"S&H Mode" : 1.0,
									"S&H Trigger Source" : 0.0,
									"Stereo Width" : 0.0,
									"Timber per voice variation" : 0.0,
									"Timbre Mod Source" : 0.0,
									"detune mode" : 0.0,
									"filter_cutoff_knob_value" : 0.75,
									"filter_mod_value" : 0.5,
									"harm_knob_value" : 0.25,
									"harm_mod_value" : 0.0,
									"morph_knob_value" : 0.5,
									"morph_mod_value" : -0.3,
									"timbre_knob_value" : 0.5,
									"timbre_mod_value" : 0.02,
									"filter_mod_target" : 0.0,
									"harm_mod_target" : 0.0,
									"keytrack_amount" : 100.0,
									"model_knob_value" : 2.8,
									"model_mod_target" : 0.0,
									"model_mod_value" : 0.02,
									"morph_mod_target" : 0.0,
									"timbre_mod_target" : 0.0,
									"vel_adsr_amount" : 100.0,
									"blob" : 									{
										"multi-value" : [ 0.458475949710504, 0.53969335716747, 0.105478145345724, 0.788423486859248, 0.532435344685657, 0.597268552433438, 0.354627717627791 ],
										"Filter_mod_map" : [ 0 ],
										"Harm_mod_map" : [ 0 ],
										"Model_mod_map" : [ 0 ],
										"Morph_mod_map" : [ 0 ],
										"Timbre_mod_map" : [ 0 ],
										"detune reset" : [ 0 ],
										"dict" : [ 											{
												"mod" : 2
											}
 ],
										"modulation patchbay" : [ 											{
												"data" : 												{
													"numins" : 7,
													"numouts" : 7,
													"connections" : [ 														{
															"in" : 6,
															"out" : 5,
															"gain" : 1.0
														}
, 														{
															"in" : 6,
															"out" : 6,
															"gain" : 0.495
														}
, 														{
															"in" : 4,
															"out" : 6,
															"gain" : 0.475
														}
, 														{
															"in" : 3,
															"out" : 4,
															"gain" : 1.0
														}
, 														{
															"in" : 4,
															"out" : 3,
															"gain" : 1.0
														}
 ]
												}

											}
 ],
										"pictctrl" : [ 1 ]
									}

								}

							}
,
							"active" : 1
						}
,
						"snapshotlist" : 						{
							"current_snapshot" : 0,
							"entries" : [ 								{
									"filetype" : "C74Snapshot",
									"version" : 2,
									"minorversion" : 0,
									"name" : "P_4L II.amxd",
									"origin" : "P_4L II.amxd",
									"type" : "amxd",
									"subtype" : "Undefined",
									"embed" : 0,
									"snapshot" : 									{
										"name" : "P_4L II.amxd",
										"origname" : "~/Downloads/P_4L II v.1.0/P_4L II.amxd",
										"valuedictionary" : 										{
											"parameter_values" : 											{
												"ADSR Attack" : 0.0,
												"ADSR Decay" : 0.850393700787402,
												"ADSR Release" : 0.5,
												"ADSR Response" : 1.0,
												"ADSR Sustain" : 0.0,
												"Clock Chance" : 100.0,
												"Clock Free Rate" : 0.2,
												"Clock Mode" : 1.0,
												"Clock Sync Rate" : 23.0,
												"Detune" : 0.0,
												"Env Trigger Source" : 0.0,
												"FM Mod Amount" : 0.0,
												"FM Mod Source" : 0.0,
												"Filter Bypass" : 1.0,
												"Filter Drive" : 0.0,
												"Filter Mod Source" : 0.0,
												"Filter Resonance" : 0.0,
												"Filter Type" : 0.0,
												"Filter per voice variation" : 0.0,
												"Harm per voice variation" : 0.0,
												"Internal Env Bypass" : 0.0,
												"LFO 2 Curve" : 77.0,
												"LFO 2 Free Rate" : 6.501804585499966,
												"LFO 2 Mode" : 1.0,
												"LFO 2 Phase" : 0.0,
												"LFO 2 Skew" : 44.0,
												"LFO 2 Squareness" : 50.0,
												"LFO 2 Symmetry" : 0.0,
												"LFO 2 Sync" : 0.0,
												"LFO 2 Sync Rate" : 23.0,
												"LFO 2 Tilt" : 50.0,
												"LFO 2 Warp" : 0.0,
												"LFO 2 Width" : 50.0,
												"LFO Curve" : 50.0,
												"LFO Free Rate" : 6.501804585499966,
												"LFO Mode" : 0.0,
												"LFO Phase" : 0.0,
												"LFO Skew" : 50.0,
												"LFO Squareness" : 50.0,
												"LFO Symmetry" : 0.0,
												"LFO Sync" : 1.0,
												"LFO Sync Rate" : 15.0,
												"LFO Tilt" : 50.0,
												"LFO Warp" : 50.0,
												"LFO Width" : 50.0,
												"LPG Color" : 1.0,
												"LPG Decay" : 0.0,
												"Level Mod Source" : 0.0,
												"Master Volume" : -3.485564304461903,
												"Morph Mod Source" : 0.0,
												"Morph per voice variation" : 0.0,
												"Octave Shift" : 0.0,
												"Oscillator Mix" : 0.503937007874016,
												"RND Instability" : 13.0,
												"RND Mode" : 0.0,
												"RND Rate" : 4.349799086702484,
												"S&H Mode" : 1.0,
												"S&H Trigger Source" : 0.0,
												"Stereo Width" : 0.0,
												"Timber per voice variation" : 0.0,
												"Timbre Mod Source" : 0.0,
												"detune mode" : 0.0,
												"filter_cutoff_knob_value" : 0.75,
												"filter_mod_value" : 0.5,
												"harm_knob_value" : 0.25,
												"harm_mod_value" : 0.0,
												"morph_knob_value" : 0.5,
												"morph_mod_value" : -0.3,
												"timbre_knob_value" : 0.5,
												"timbre_mod_value" : 0.02,
												"filter_mod_target" : 0.0,
												"harm_mod_target" : 0.0,
												"keytrack_amount" : 100.0,
												"model_knob_value" : 2.8,
												"model_mod_target" : 0.0,
												"model_mod_value" : 0.02,
												"morph_mod_target" : 0.0,
												"timbre_mod_target" : 0.0,
												"vel_adsr_amount" : 100.0,
												"blob" : 												{
													"multi-value" : [ 0.458475949710504, 0.53969335716747, 0.105478145345724, 0.788423486859248, 0.532435344685657, 0.597268552433438, 0.354627717627791 ],
													"Filter_mod_map" : [ 0 ],
													"Harm_mod_map" : [ 0 ],
													"Model_mod_map" : [ 0 ],
													"Morph_mod_map" : [ 0 ],
													"Timbre_mod_map" : [ 0 ],
													"detune reset" : [ 0 ],
													"dict" : [ 														{
															"mod" : 2
														}
 ],
													"modulation patchbay" : [ 														{
															"data" : 															{
																"numins" : 7,
																"numouts" : 7,
																"connections" : [ 																	{
																		"in" : 6,
																		"out" : 5,
																		"gain" : 1.0
																	}
, 																	{
																		"in" : 6,
																		"out" : 6,
																		"gain" : 0.495
																	}
, 																	{
																		"in" : 4,
																		"out" : 6,
																		"gain" : 0.475
																	}
, 																	{
																		"in" : 3,
																		"out" : 4,
																		"gain" : 1.0
																	}
, 																	{
																		"in" : 4,
																		"out" : 3,
																		"gain" : 1.0
																	}
 ]
															}

														}
 ],
													"pictctrl" : [ 1 ]
												}

											}

										}
,
										"active" : 1
									}
,
									"fileref" : 									{
										"name" : "P_4L II.amxd",
										"filename" : "P_4L II.amxd.maxsnap",
										"filepath" : "~/Documents/Max 8/Snapshots",
										"filepos" : -1,
										"snapshotfileid" : "d36f4d0cf2d683b777200b27bd5ee4de"
									}

								}
 ]
						}

					}
,
					"text" : "amxd~ \"/Users/alexs/Downloads/P_4L II v.1.0/P_4L II.amxd\"",
					"varname" : "amxd~",
					"viewvisibility" : 1
				}

			}
, 			{
				"box" : 				{
					"id" : "obj-4",
					"maxclass" : "ezdac~",
					"numinlets" : 2,
					"numoutlets" : 0,
					"patching_rect" : [ 448.0, 1085.0, 45.0, 45.0 ]
				}

			}
, 			{
				"box" : 				{
					"id" : "obj-3",
					"maxclass" : "toggle",
					"numinlets" : 1,
					"numoutlets" : 1,
					"outlettype" : [ "int" ],
					"parameter_enable" : 0,
					"patching_rect" : [ 448.0, 24.0, 62.0, 62.0 ]
				}

			}
, 			{
				"box" : 				{
					"id" : "obj-2",
					"maxclass" : "newobj",
					"numinlets" : 1,
					"numoutlets" : 1,
					"outlettype" : [ "" ],
					"patching_rect" : [ 686.0, 120.585585415363312, 97.0, 22.0 ],
					"text" : "udpreceive 8080"
				}

			}
 ],
		"lines" : [ 			{
				"patchline" : 				{
					"destination" : [ "obj-11", 1 ],
					"midpoints" : [ 939.5, 644.5, 701.5, 644.5 ],
					"source" : [ "obj-1", 1 ]
				}

			}
, 			{
				"patchline" : 				{
					"destination" : [ "obj-11", 0 ],
					"order" : 0,
					"source" : [ "obj-1", 0 ]
				}

			}
, 			{
				"patchline" : 				{
					"destination" : [ "obj-28", 1 ],
					"order" : 1,
					"source" : [ "obj-1", 0 ]
				}

			}
, 			{
				"patchline" : 				{
					"destination" : [ "obj-7", 2 ],
					"source" : [ "obj-11", 0 ]
				}

			}
, 			{
				"patchline" : 				{
					"destination" : [ "obj-1", 1 ],
					"source" : [ "obj-16", 0 ]
				}

			}
, 			{
				"patchline" : 				{
					"destination" : [ "obj-41", 0 ],
					"source" : [ "obj-18", 0 ]
				}

			}
, 			{
				"patchline" : 				{
					"destination" : [ "obj-31", 0 ],
					"source" : [ "obj-19", 0 ]
				}

			}
, 			{
				"patchline" : 				{
					"destination" : [ "obj-38", 0 ],
					"source" : [ "obj-19", 1 ]
				}

			}
, 			{
				"patchline" : 				{
					"destination" : [ "obj-44", 0 ],
					"source" : [ "obj-19", 2 ]
				}

			}
, 			{
				"patchline" : 				{
					"destination" : [ "obj-49", 0 ],
					"source" : [ "obj-19", 3 ]
				}

			}
, 			{
				"patchline" : 				{
					"destination" : [ "obj-45", 0 ],
					"source" : [ "obj-2", 0 ]
				}

			}
, 			{
				"patchline" : 				{
					"destination" : [ "obj-1", 0 ],
					"source" : [ "obj-24", 0 ]
				}

			}
, 			{
				"patchline" : 				{
					"destination" : [ "obj-4", 0 ],
					"order" : 1,
					"source" : [ "obj-3", 0 ]
				}

			}
, 			{
				"patchline" : 				{
					"destination" : [ "obj-40", 0 ],
					"order" : 0,
					"source" : [ "obj-3", 0 ]
				}

			}
, 			{
				"patchline" : 				{
					"destination" : [ "obj-4", 1 ],
					"source" : [ "obj-30", 1 ]
				}

			}
, 			{
				"patchline" : 				{
					"destination" : [ "obj-4", 0 ],
					"source" : [ "obj-30", 0 ]
				}

			}
, 			{
				"patchline" : 				{
					"destination" : [ "obj-24", 0 ],
					"source" : [ "obj-31", 0 ]
				}

			}
, 			{
				"patchline" : 				{
					"destination" : [ "obj-30", 0 ],
					"source" : [ "obj-32", 0 ]
				}

			}
, 			{
				"patchline" : 				{
					"destination" : [ "obj-30", 0 ],
					"source" : [ "obj-35", 0 ]
				}

			}
, 			{
				"patchline" : 				{
					"destination" : [ "obj-42", 0 ],
					"source" : [ "obj-36", 0 ]
				}

			}
, 			{
				"patchline" : 				{
					"destination" : [ "obj-43", 0 ],
					"source" : [ "obj-38", 0 ]
				}

			}
, 			{
				"patchline" : 				{
					"destination" : [ "obj-18", 0 ],
					"source" : [ "obj-40", 0 ]
				}

			}
, 			{
				"patchline" : 				{
					"destination" : [ "obj-19", 0 ],
					"order" : 1,
					"source" : [ "obj-41", 1 ]
				}

			}
, 			{
				"patchline" : 				{
					"destination" : [ "obj-48", 1 ],
					"order" : 0,
					"source" : [ "obj-41", 1 ]
				}

			}
, 			{
				"patchline" : 				{
					"destination" : [ "obj-16", 0 ],
					"source" : [ "obj-42", 0 ]
				}

			}
, 			{
				"patchline" : 				{
					"destination" : [ "obj-1", 0 ],
					"source" : [ "obj-43", 0 ]
				}

			}
, 			{
				"patchline" : 				{
					"destination" : [ "obj-47", 0 ],
					"source" : [ "obj-44", 0 ]
				}

			}
, 			{
				"patchline" : 				{
					"destination" : [ "obj-6", 0 ],
					"source" : [ "obj-45", 0 ]
				}

			}
, 			{
				"patchline" : 				{
					"destination" : [ "obj-1", 0 ],
					"source" : [ "obj-47", 0 ]
				}

			}
, 			{
				"patchline" : 				{
					"destination" : [ "obj-51", 0 ],
					"source" : [ "obj-49", 0 ]
				}

			}
, 			{
				"patchline" : 				{
					"destination" : [ "obj-1", 0 ],
					"source" : [ "obj-51", 0 ]
				}

			}
, 			{
				"patchline" : 				{
					"destination" : [ "obj-53", 0 ],
					"source" : [ "obj-52", 0 ]
				}

			}
, 			{
				"patchline" : 				{
					"destination" : [ "obj-55", 0 ],
					"source" : [ "obj-54", 0 ]
				}

			}
, 			{
				"patchline" : 				{
					"destination" : [ "obj-131", 1 ],
					"order" : 0,
					"source" : [ "obj-6", 0 ]
				}

			}
, 			{
				"patchline" : 				{
					"destination" : [ "obj-41", 0 ],
					"order" : 1,
					"source" : [ "obj-6", 0 ]
				}

			}
, 			{
				"patchline" : 				{
					"destination" : [ "obj-30", 1 ],
					"source" : [ "obj-7", 1 ]
				}

			}
, 			{
				"patchline" : 				{
					"destination" : [ "obj-30", 0 ],
					"source" : [ "obj-7", 0 ]
				}

			}
 ],
		"parameters" : 		{
			"obj-30" : [ "vst~", "vst~", 0 ],
			"obj-7" : [ "amxd~", "amxd~", 0 ],
			"parameterbanks" : 			{
				"0" : 				{
					"index" : 0,
					"name" : "",
					"parameters" : [ "-", "-", "-", "-", "-", "-", "-", "-" ]
				}

			}
,
			"inherited_shortname" : 1
		}
,
		"dependency_cache" : [ 			{
				"name" : "P_4L II.amxd",
				"bootpath" : "~/Downloads/P_4L II v.1.0",
				"patcherrelativepath" : "../../Downloads/P_4L II v.1.0",
				"type" : "amxd",
				"implicit" : 1
			}
, 			{
				"name" : "P_4L II.amxd.maxsnap",
				"bootpath" : "~/Documents/Max 8/Snapshots",
				"patcherrelativepath" : "../../Documents/Max 8/Snapshots",
				"type" : "mx@s",
				"implicit" : 1
			}
, 			{
				"name" : "ValhallaSupermassive.maxsnap",
				"bootpath" : "~/Documents/Max 8/Snapshots",
				"patcherrelativepath" : "../../Documents/Max 8/Snapshots",
				"type" : "mx@s",
				"implicit" : 1
			}
, 			{
				"name" : "dual_knob_mgraphics.js",
				"type" : "TEXT",
				"implicit" : 1
			}
, 			{
				"name" : "fifths_and_oct_desc.txt",
				"type" : "TEXT",
				"implicit" : 1
			}
, 			{
				"name" : "fifths_and_octaves.txt",
				"type" : "TEXT",
				"implicit" : 1
			}
, 			{
				"name" : "floor.mxo",
				"type" : "iLaX"
			}
, 			{
				"name" : "go.chance.gendsp",
				"type" : "gDSP",
				"implicit" : 1
			}
, 			{
				"name" : "go.ramp2trig.gendsp",
				"type" : "gDSP",
				"implicit" : 1
			}
, 			{
				"name" : "go.unit.arc.gendsp",
				"type" : "gDSP",
				"implicit" : 1
			}
, 			{
				"name" : "go.unit.cubic.gendsp",
				"type" : "gDSP",
				"implicit" : 1
			}
, 			{
				"name" : "go.unit.lfo.gendsp",
				"type" : "gDSP",
				"implicit" : 1
			}
, 			{
				"name" : "go.unit.sine.gendsp",
				"type" : "gDSP",
				"implicit" : 1
			}
, 			{
				"name" : "go.unit.trapezoid.gendsp",
				"type" : "gDSP",
				"implicit" : 1
			}
, 			{
				"name" : "go.unit.triangle.gendsp",
				"type" : "gDSP",
				"implicit" : 1
			}
, 			{
				"name" : "unstable_phasor.gendsp",
				"type" : "gDSP",
				"implicit" : 1
			}
, 			{
				"name" : "vb.mi.plts~.mxo",
				"type" : "iLaX"
			}
 ],
		"autosave" : 0
	}

}
